<?xml version="1.0" encoding="utf-8"?>
<!-- Generator: Adobe Illustrator 15.0.0, SVG Export Plug-In . SVG Version: 6.00 Build 0)  -->
<!DOCTYPE svg PUBLIC "-//W3C//DTD SVG 1.1//EN" "http://www.w3.org/Graphics/SVG/1.1/DTD/svg11.dtd">
<svg version="1.1" id="Layer_1" xmlns="http://www.w3.org/2000/svg" xmlns:xlink="http://www.w3.org/1999/xlink" x="0px" y="0px"
	 width="256px" height="256px" viewBox="0 0 256 256" enable-background="new 0 0 256 256" xml:space="preserve">
<rect fill="#E31B23" width="256" height="256"/>
<g>
	<path fill="#FFFFFF" d="M128,13.672c-42.191,0-76.384,34.2-76.384,76.392c0,16.099,4.991,31.022,13.494,43.339l30.292,52.463
		l32.599,56.462l32.598-56.462l30.311-52.495c8.49-12.31,13.475-27.222,13.475-43.307C204.385,47.872,170.182,13.672,128,13.672z
		 M127.999,131.082c-26.308,0-47.635-21.326-47.635-47.634c0-26.31,21.327-47.637,47.635-47.637
		c26.31,0,47.636,21.327,47.636,47.637C175.635,109.756,154.309,131.082,127.999,131.082z"/>
	<circle fill="#FFFFFF" cx="128" cy="83.448" r="26.838"/>
</g>
</svg>
