<?xml version="1.0" encoding="utf-8"?>
<!-- Generator: Adobe Illustrator 22.0.1, SVG Export Plug-In . SVG Version: 6.00 Build 0)  -->
<svg version="1.1" id="Layer_1" xmlns="http://www.w3.org/2000/svg" xmlns:xlink="http://www.w3.org/1999/xlink" x="0px" y="0px"
	 width="50px" height="50px" viewBox="0 0 50 50" style="enable-background:new 0 0 50 50;" xml:space="preserve">
<style type="text/css">
	.st0{fill:#3B3735;}
</style>
<path class="st0" d="M48.8,25.1c0-13.1-10.6-23.7-23.7-23.7C12.1,1.4,1.4,12.1,1.4,25.1c0,7.9,3.9,14.9,9.9,19.2c0,0,0,0,0.1,0.1
	c0.1,0.1,0.2,0.1,0.2,0.1c0.4,0.3,0.8,0.6,1.3,0.8c0.1,0.1,0.2,0.1,0.3,0.2c0.4,0.2,0.7,0.4,1.1,0.6c0.2,0.1,0.3,0.2,0.5,0.2
	c0.4,0.2,0.9,0.4,1.3,0.6c0.2,0.1,0.3,0.1,0.5,0.2c0.4,0.1,0.7,0.3,1.1,0.4c0.2,0.1,0.3,0.1,0.5,0.2c0.5,0.1,0.9,0.3,1.4,0.4
	c0.2,0,0.3,0.1,0.5,0.1c0.4,0.1,0.9,0.2,1.3,0.3c0.1,0,0.2,0,0.2,0c0.5,0.1,1,0.1,1.6,0.2c0.1,0,0.3,0,0.4,0c0.5,0,1.1,0.1,1.6,0.1
	s1.1,0,1.6-0.1c0.1,0,0.3,0,0.4,0c0.5,0,1.1-0.1,1.6-0.2c0.1,0,0.2,0,0.2,0c0.4-0.1,0.9-0.2,1.3-0.3c0.2,0,0.3-0.1,0.5-0.1
	c0.5-0.1,1-0.2,1.4-0.4c0.1,0,0.3-0.1,0.4-0.2c0.4-0.1,0.7-0.3,1.1-0.4c0.2-0.1,0.3-0.1,0.5-0.2c0.4-0.2,0.9-0.4,1.3-0.6
	c0.2-0.1,0.3-0.2,0.5-0.2c0.4-0.2,0.7-0.4,1.1-0.6c0.1-0.1,0.2-0.1,0.3-0.2c0.4-0.3,0.9-0.5,1.3-0.8c0.1,0,0.1-0.1,0.2-0.1
	c0,0,0,0,0.1,0C44.9,40.1,48.8,33,48.8,25.1z M21,39.9c0.9-0.7,1.4-1.4,1.5-2.3c0.2-1.5-0.9-2.8-1.9-4c-0.4-0.5-0.9-1.1-1.2-1.6
	c-0.6-1-1-1.9-1.3-3c-0.1-0.5-0.7-0.8-1.2-0.7c-0.3,0.1-0.3,0-0.4,0c-0.6-0.5-0.6-3.1-0.6-4.3v-0.2c0-0.4,0.1-0.7,0.2-0.8
	c0.1-0.1,0.3-0.1,0.4-0.1c0.2,0,0.4,0,0.6,0c0.4-0.1,0.6-0.5,0.6-0.9c0-0.5,0-1.1-0.1-1.7c-0.1-0.5-0.1-0.9-0.1-1.3
	c0-2.7,0.7-4.7,2.2-6.1c2.2-2.1,5.4-1.9,5.5-1.9c0,0,0.1,0,0.1,0c0,0,3.3-0.2,5.5,1.9c1.4,1.4,2.2,3.4,2.2,6.1
	c0,0.4-0.1,0.8-0.1,1.3c-0.1,0.6-0.2,1.2-0.1,1.7c0,0.3,0.2,0.6,0.4,0.7c0.2,0.2,0.5,0.2,0.8,0.2c0,0,0.3,0,0.4,0.1
	c0.1,0.1,0.2,0.3,0.2,0.8v0.2c0,1.2,0,3.8-0.6,4.3c0,0-0.1,0.1-0.4,0c-0.5-0.1-1.1,0.2-1.2,0.7c-0.3,1.1-0.7,2-1.3,3
	c-0.3,0.5-0.8,1.1-1.2,1.6c-1,1.2-2.1,2.5-1.9,4c0.1,0.8,0.6,1.6,1.5,2.3c0.8,0.6,2.4,1.4,4.3,2.4c0.9,0.4,1.8,0.9,2.8,1.4
	c-0.1,0-0.2,0.1-0.2,0.1c-0.3,0.2-0.5,0.3-0.8,0.5c-0.2,0.1-0.3,0.2-0.5,0.3c-0.2,0.1-0.5,0.2-0.7,0.3c-0.2,0.1-0.3,0.2-0.5,0.2
	c-0.4,0.2-0.7,0.3-1.1,0.4c-0.2,0.1-0.4,0.1-0.5,0.2c-0.2,0.1-0.5,0.2-0.7,0.2c-0.2,0.1-0.4,0.1-0.5,0.2c-0.3,0.1-0.6,0.2-0.9,0.2
	c-0.1,0-0.3,0.1-0.4,0.1c-0.4,0.1-0.8,0.1-1.2,0.2c-0.1,0-0.3,0-0.4,0.1c-0.3,0-0.6,0.1-0.9,0.1c-0.1,0-0.3,0-0.4,0
	c-0.4,0-0.9,0-1.3,0s-0.9,0-1.3,0c-0.1,0-0.3,0-0.4,0c-0.3,0-0.6-0.1-0.9-0.1c-0.1,0-0.3,0-0.4-0.1c-0.4-0.1-0.8-0.1-1.2-0.2
	c-0.1,0-0.3-0.1-0.4-0.1c-0.3-0.1-0.6-0.1-0.9-0.2c-0.2,0-0.4-0.1-0.5-0.2c-0.2-0.1-0.5-0.1-0.7-0.2c-0.2-0.1-0.4-0.1-0.5-0.2
	c-0.4-0.1-0.7-0.3-1.1-0.4c-0.2-0.1-0.3-0.2-0.5-0.2c-0.2-0.1-0.5-0.2-0.7-0.3c-0.2-0.1-0.3-0.2-0.5-0.3c-0.3-0.1-0.5-0.3-0.8-0.5
	c-0.1-0.1-0.2-0.1-0.3-0.1c1-0.5,1.9-1,2.8-1.4C18.6,41.3,20.2,40.5,21,39.9L21,39.9z M38.2,42.4c-1.3-0.7-2.6-1.3-3.7-1.9
	c-1.8-0.9-3.3-1.7-4.1-2.2c-0.4-0.3-0.7-0.6-0.7-0.9c-0.1-0.6,0.7-1.6,1.5-2.5c0.5-0.6,1-1.2,1.4-1.8c0.6-0.9,1-1.8,1.3-2.8
	c0.5-0.1,0.8-0.3,1.1-0.5c1.4-1.1,1.4-3.7,1.4-5.8v-0.2c0-1.8-0.9-2.4-1.5-2.6c-0.1,0-0.2-0.1-0.3-0.1c0-0.1,0-0.3,0.1-0.4
	c0.1-0.5,0.2-1.1,0.2-1.6c0-3.3-0.9-5.8-2.8-7.6C29.3,9,25.7,9,25.1,9.1c-0.5,0-4.2-0.1-6.9,2.5c-1.9,1.8-2.8,4.3-2.8,7.6
	c0,0.5,0.1,1,0.2,1.6c0,0.1,0,0.3,0.1,0.4c-0.3,0.1-0.6,0.2-0.8,0.4c-0.4,0.3-1,1-1,2.3v0.2c0,2.1,0,4.7,1.4,5.8
	c0.2,0.2,0.6,0.4,1.1,0.5c0.3,1,0.7,1.9,1.3,2.8c0.4,0.6,0.9,1.2,1.4,1.8c0.8,0.9,1.6,1.9,1.5,2.5c0,0.3-0.3,0.6-0.7,0.9h0
	c-0.7,0.5-2.3,1.3-4.1,2.2c-1.2,0.6-2.5,1.2-3.7,1.9c-5.2-4-8.6-10.2-8.6-17.3c0-12,9.7-21.7,21.7-21.7s21.7,9.7,21.7,21.7
	C46.8,32.2,43.5,38.5,38.2,42.4z"/>
</svg>
