<?xml version="1.0" encoding="utf-8"?>
<!-- Generator: Adobe Illustrator 22.0.1, SVG Export Plug-In . SVG Version: 6.00 Build 0)  -->
<svg version="1.1" id="Layer_1" xmlns="http://www.w3.org/2000/svg" xmlns:xlink="http://www.w3.org/1999/xlink" x="0px" y="0px"
	 width="50px" height="50px" viewBox="0 0 50 50" style="enable-background:new 0 0 50 50;" xml:space="preserve">
<style type="text/css">
	.st0{fill:#fff;}
</style>
<path class="st0" d="M49,14.3c-0.4-0.5-1-0.8-1.6-0.8h-2.5v-7c0-0.6-0.4-1-1-1H40V1.8c0-0.6-0.4-1-1-1H18.3c-0.6,0-1,0.4-1,1v7H15
	c-0.6,0-1,0.4-1,1v3.8h-3.1L8.7,6.2c-0.1-0.4-0.5-0.7-1-0.7H1.7c-0.6,0-1,0.4-1,1s0.4,1,1,1H7l2,6.9c0,0.1,0,0.2,0,0.4l2,6.4
	l5.6,19.1c-1.3,0.9-2.1,2.4-2.1,4c0,2.7,2.2,4.9,4.9,4.9s4.9-2.2,4.9-4.9c0-1.1-0.4-2.1-1-2.9h11.8c-0.6,0.8-1,1.8-1,2.9
	c0,2.7,2.2,4.9,4.9,4.9c2.7,0,4.9-2.2,4.9-4.9c0-2.7-2.2-4.9-4.9-4.9c-0.1,0-0.1,0-0.2,0c0,0-0.1,0-0.1,0H18.5l-1.5-5h25.1
	c0.9,0,1.7-0.6,1.9-1.4l5.2-17C49.5,15.5,49.3,14.9,49,14.3z M22.3,44.4c0,1.6-1.3,2.9-2.9,2.9c-1.6,0-2.9-1.3-2.9-2.9
	c0-1.6,1.3-2.9,2.9-2.9C21,41.5,22.3,42.8,22.3,44.4z M41.9,44.4c0,1.6-1.3,2.9-2.9,2.9c-1.6,0-2.9-1.3-2.9-2.9
	c0-1.6,1.3-2.9,2.9-2.9C40.6,41.5,41.9,42.8,41.9,44.4z M42.8,13.5h-11V9.8c0-0.6-0.4-1-1-1h-3.4V7.5h15.4V13.5z M19.3,2.8H38v2.7
	H26.5c-0.6,0-1,0.4-1,1v2.3h-6.1V2.8z M16,10.8h13.8v2.8H16V10.8z M42.2,32.5H16.6L13,20.7l-1.5-5.1H15h15.8h13h3.5L42.2,32.5z"/>
</svg>
