<?xml version="1.0" encoding="utf-8"?>
<!-- Generator: Adobe Illustrator 22.0.1, SVG Export Plug-In . SVG Version: 6.00 Build 0)  -->
<svg version="1.1" id="Layer_1" xmlns="http://www.w3.org/2000/svg" xmlns:xlink="http://www.w3.org/1999/xlink" x="0px" y="0px"
	 width="585px" height="134px" viewBox="0 0 585 134" style="enable-background:new 0 0 585 134;" xml:space="preserve">
<style type="text/css">
	.st0{fill-rule:evenodd;clip-rule:evenodd;fill:#E00713;}
	.st1{fill-rule:evenodd;clip-rule:evenodd;fill:#575756;}
	.st2{fill-rule:evenodd;clip-rule:evenodd;fill:#B2B2B2;}
	.st3{fill:#FFFFFF;}
</style>
<g>
	<path class="st0" d="M68.7,59.5c-1.9,7-4.6,14.6-17.6,14.9c-13-0.2-20.5-8.4-20.5-24.8c0-16,7.1-23.8,20.5-24.3
		c10.6,0.3,15.2,6,17.8,13h20.9c-1-17.2-15.4-30-39.7-30.3c-18,0-41.1,11.7-41.1,42.6c0,24.2,18.2,41.6,40.9,41.6
		c23.6,0.2,39.1-15.1,40.3-32.8L68.7,59.5L68.7,59.5z M93.2,90.6h20.5l0.2-33.2c-0.3-8.3,6.2-12.7,10.5-12.7c4,0,10.5,1.9,10.5,8.4
		l0.8,37.5h19.7l0.3-43.5c-2.5-12.9-10-17-21.6-17.3c-11.3,0.2-15.7,4.7-20.2,9.5l0-29H93.5L93.2,90.6L93.2,90.6z M179.5,55.5
		c-0.2-8.4,6.8-13.2,11.6-13.2c7.4,0,13.6,4.6,13.2,13.5L179.5,55.5L179.5,55.5z M224.5,65.8c1.6,15,15,26.9,33.7,26.9
		c16.1,0,28.8-12,29.7-25l-19.6,0c0,5.2-6.8,10.3-10.9,10.3c-7.9,0.5-13.1-5.4-13.1-16.9c0-11.2,5.7-16.3,13.9-16.9
		c3.8,0,9.8,2.7,10.3,9l19.1,0c-1.4-14.7-16.1-23.1-30.2-23.1c-17.1,0-31,10.3-32.9,28.8c-2.2-17.1-13.9-27.8-31.6-28.6
		c-17.4,0.3-33.7,10.3-33.7,31.3c0,16.1,11.4,31,32.7,31c14.4,0.3,29.7-7.6,31.8-19.6h-19c-1.9,3.5-4.9,6.8-10.9,6.8
		c-9.2,0-13.9-4.6-14.2-14.2L224.5,65.8L224.5,65.8z M355.2,90.6h1.6H377l0.3-32.1h35.1V43.3h-35.1V25.8h40.8V10.3h-62.9v78.1
		l-26.1-35.4l23.9-21.8h-23.9l-18.8,21V10.3h-20.4l0.3,80.3h20.4V71.3l5.4-4.9l15,24.2H355.2L355.2,90.6z M420.2,24h19.4V10.3h-19.4
		V24L420.2,24z M420.2,90.6h19.4V31.9h-19.4V90.6L420.2,90.6z M490.5,43.9l0.3-12.5c-14.4-2.4-19.9,4.1-23.7,10.3V31.6h-19.6
		l0.5,59.1h19.9V58.8c-0.3-8.2,9.5-13.9,20.7-12c-2.7,4.6-4.1,9.8-4.1,15.2c0,16.1,11.4,29.1,33.5,29.7c18,0.3,27.8-8.7,30.8-19.1
		H531c-3.8,5.7-7.1,7.1-13.6,7.1c-8.2,0-13.3-7.9-13.3-14.2l46,0.3c1.1-25-14.4-35.9-32.1-35.9C506.5,30,496.5,35.4,490.5,43.9
		L490.5,43.9z M504.3,55.4c1-8.4,6.5-13,12.8-13c6.5,0,12.7,2.7,13.3,12.9L504.3,55.4L504.3,55.4z"/>
	<polygon class="st1" points="554.9,90.6 577.5,90.6 577.5,68.9 554.9,68.9 554.9,90.6 	"/>
	<polygon class="st2" points="8.9,102.8 577.2,102.8 577.2,126.9 8.9,126.9 8.9,102.8 	"/>
	<g>
		<path class="st3" d="M486.6,108.5v3.2c-2-0.9-4-1.4-6-1.4c-1.9,0-3.3,0.4-4.3,1.3s-1.5,2-1.5,3.3c0,1.3,0.5,2.3,1.5,3.1
			s2.3,1.2,4,1.2c0.9,0,1.8-0.2,2.6-0.5v-1.7h-2.3v-2.7h6.3v6c-0.6,0.6-1.6,1.1-2.9,1.4c-1.3,0.4-2.6,0.6-3.8,0.6
			c-2.8,0-5.1-0.7-6.8-2.1c-1.8-1.4-2.7-3.2-2.7-5.4c0-2.2,0.9-4.1,2.7-5.5c1.8-1.4,4.1-2.1,6.9-2.1
			C482.6,107.3,484.7,107.7,486.6,108.5z"/>
		<path class="st3" d="M493,107.5h7.1c1.5,0,2.8,0.4,3.8,1.2c1,0.8,1.5,1.8,1.5,3c0,1.6-0.9,2.8-2.7,3.6c0.8,0.3,1.6,1.2,2.3,2.7
			s1.4,2.9,2.1,4.2h-4.4c-0.3-0.5-0.7-1.4-1.4-2.8c-0.6-1.4-1.2-2.2-1.7-2.6c-0.5-0.4-1-0.6-1.5-0.6h-1.1v6h-4V107.5z M496.9,110.2
			v3.4h2.1c0.7,0,1.2-0.1,1.6-0.4c0.4-0.3,0.6-0.7,0.6-1.3c0-1.1-0.8-1.7-2.3-1.7H496.9z"/>
	</g>
	<g>
		<path class="st3" d="M519.5,107.3c2.7,0,4.9,0.8,6.6,2.3c1.7,1.5,2.5,3.3,2.5,5.3c0,2-0.9,3.8-2.6,5.3c-1.7,1.5-3.9,2.2-6.6,2.2
			c-2.7,0-4.9-0.7-6.6-2.2c-1.7-1.5-2.5-3.3-2.5-5.3c0-2,0.8-3.8,2.5-5.3S516.8,107.3,519.5,107.3z M519.5,119.3
			c1.5,0,2.7-0.4,3.6-1.2c0.9-0.8,1.4-1.9,1.4-3.3c0-1.4-0.5-2.4-1.4-3.3c-0.9-0.8-2.1-1.2-3.6-1.2c-1.5,0-2.7,0.4-3.7,1.2
			c-0.9,0.8-1.4,1.9-1.4,3.3c0,1.3,0.5,2.4,1.4,3.3C516.8,118.9,518,119.3,519.5,119.3z"/>
		<path class="st3" d="M545.9,107.5h4v8.4c0,2.2-0.7,3.8-2.1,4.9c-1.4,1.1-3.3,1.7-5.9,1.7c-2.5,0-4.5-0.6-5.9-1.7
			c-1.4-1.1-2.1-2.7-2.1-4.9v-8.4h4v8.5c0,1,0.4,1.9,1.1,2.5c0.7,0.6,1.7,0.9,2.9,0.9c1.2,0,2.2-0.3,2.9-1c0.7-0.6,1.1-1.5,1.1-2.7
			V107.5z"/>
	</g>
	<g>
		<path class="st3" d="M556.1,107.5h7.1c1.6,0,2.9,0.4,3.8,1.3c1,0.9,1.4,1.9,1.4,3.1c0,1.2-0.5,2.3-1.4,3.1
			c-0.9,0.9-2.2,1.3-3.8,1.3h-3.2v5.9h-4V107.5z M560.1,110.2v3.4h1.8c1.7,0,2.5-0.6,2.5-1.7c0-0.6-0.2-1.1-0.7-1.3
			s-1.2-0.4-2.3-0.4H560.1z"/>
	</g>
</g>
</svg>
