<?xml version="1.0" encoding="utf-8"?>
<!-- Generator: Adobe Illustrator 22.0.1, SVG Export Plug-In . SVG Version: 6.00 Build 0)  -->
<svg version="1.1" id="Layer_1" xmlns="http://www.w3.org/2000/svg" xmlns:xlink="http://www.w3.org/1999/xlink" x="0px" y="0px"
	 width="46.5px" height="46.7px" viewBox="0 0 46.5 46.7" style="enable-background:new 0 0 46.5 46.7;" xml:space="preserve">
<style type="text/css">
	.st0{fill:#fff;}
</style>
<g>
	<path class="st0" d="M40.8,5.7c-7.6-7.6-20-7.6-27.6,0c-3.7,3.7-5.7,8.6-5.7,13.8c0,3.5,0.9,6.8,2.6,9.7l-8.8,8.8
		c-1.9,1.9-1.8,5.1,0.1,7.1c1,1,2.3,1.5,3.7,1.5c1.3,0,2.5-0.5,3.4-1.4l8.9-8.9c3,1.7,6.3,2.5,9.6,2.5c5,0,10-1.9,13.8-5.7
		c3.7-3.7,5.7-8.6,5.7-13.8S44.5,9.4,40.8,5.7z M7.2,43.9c-1.1,1.1-3.1,1-4.3-0.1c-1.2-1.2-1.2-3.2-0.1-4.3l8.5-8.5
		c0.6,0.8,1.2,1.6,2,2.3c0.8,0.8,1.6,1.4,2.5,2.1L7.2,43.9z M39.4,31.8c-6.8,6.8-17.9,6.8-24.7,0c-3.3-3.3-5.1-7.7-5.1-12.4
		s1.8-9.1,5.1-12.4C18.1,3.7,22.6,2,27.1,2c4.5,0,9,1.7,12.4,5.1c3.3,3.3,5.1,7.7,5.1,12.4S42.7,28.5,39.4,31.8z"/>
	<path class="st0" d="M37,9.5C31.5,4,22.6,4,17.1,9.5c-5.5,5.5-5.5,14.4,0,19.9c2.7,2.7,6.3,4.1,9.9,4.1c3.6,0,7.2-1.4,9.9-4.1
		C42.5,23.9,42.5,15,37,9.5z M35.6,28c-4.7,4.7-12.4,4.7-17.1,0c-4.7-4.7-4.7-12.4,0-17.1c2.4-2.4,5.4-3.5,8.5-3.5
		c3.1,0,6.2,1.2,8.5,3.5C40.3,15.6,40.3,23.3,35.6,28z"/>
</g>
</svg>
